HIERARCHY
ROOT Hips
{
    OFFSET   0.000000   0.000000   0.000000
    CHANNELS 6 Xposition Yposition Zposition Zrotation Xrotation Yrotation
    JOINT Chest
    {
        OFFSET   0.000000   8.007230   0.000000
        CHANNELS 3 Zrotation Xrotation Yrotation
        JOINT Chest2
        {
            OFFSET   0.000000  22.077100   0.000000
            CHANNELS 3 Zrotation Xrotation Yrotation
            JOINT Neck
            {
                OFFSET   0.000000  23.254800   0.000000
                CHANNELS 3 Zrotation Xrotation Yrotation
                JOINT Head
                {
                    OFFSET   0.000010  14.370000   1.956600
                    CHANNELS 3 Zrotation Xrotation Yrotation
                    End Site
                    {
                        OFFSET   0.000000  19.566000   0.000000
                    }
                }
            }
            JOINT LeftCollar
            {
                OFFSET   3.911900  19.017000  -0.467062
                CHANNELS 3 Zrotation Xrotation Yrotation
                JOINT LeftShoulder
                {
                    OFFSET  10.383700   0.000000   0.000000
                    CHANNELS 3 Zrotation Xrotation Yrotation
                    JOINT LeftElbow
                    {
                        OFFSET  26.662100   0.001193   0.000835
                        CHANNELS 3 Zrotation Xrotation Yrotation
                        JOINT LeftWrist
                        {
                            OFFSET  28.869000  -0.000058  -0.000075
                            CHANNELS 3 Zrotation Xrotation Yrotation
                            JOINT LeftFinger0
                            {
                                OFFSET   2.044660  -2.323460   3.252850
                                CHANNELS 3 Zrotation Xrotation Yrotation
                                JOINT LeftFinger01
                                {
                                    OFFSET   3.088130   0.000000   0.000000
                                    CHANNELS 3 Zrotation Xrotation Yrotation
                                    JOINT LeftFinger02
                                    {
                                        OFFSET   2.639450   0.000000   0.000000
                                        CHANNELS 3 Zrotation Xrotation Yrotation
                                        End Site
                                        {
                                            OFFSET   2.582190   0.000000   0.000000
                                        }
                                    }
                                }
                            }
                            JOINT LeftFinger1
                            {
                                OFFSET   8.364480   0.000000   3.252850
                                CHANNELS 3 Zrotation Xrotation Yrotation
                                JOINT LeftFinger11
                                {
                                    OFFSET   4.646920   0.000000   0.000000
                                    CHANNELS 3 Zrotation Xrotation Yrotation
                                    JOINT LeftFinger12
                                    {
                                        OFFSET   2.323460   0.000000   0.000000
                                        CHANNELS 3 Zrotation Xrotation Yrotation
                                        End Site
                                        {
                                            OFFSET   2.273050   0.000000   0.000000
                                        }
                                    }
                                }
                            }
                            JOINT LeftFinger2
                            {
                                OFFSET   8.364490   0.000016   1.078090
                                CHANNELS 3 Zrotation Xrotation Yrotation
                                JOINT LeftFinger21
                                {
                                    OFFSET   5.111620   0.000000   0.000000
                                    CHANNELS 3 Zrotation Xrotation Yrotation
                                    JOINT LeftFinger22
                                    {
                                        OFFSET   2.788150   0.000012   0.000000
                                        CHANNELS 3 Zrotation Xrotation Yrotation
                                        End Site
                                        {
                                            OFFSET   2.727660   0.000000   0.000000
                                        }
                                    }
                                }
                            }
                            JOINT LeftFinger3
                            {
                                OFFSET   7.899780   0.000014  -1.078090
                                CHANNELS 3 Zrotation Xrotation Yrotation
                                JOINT LeftFinger31
                                {
                                    OFFSET   4.646930   0.000000   0.000000
                                    CHANNELS 3 Zrotation Xrotation Yrotation
                                    JOINT LeftFinger32
                                    {
                                        OFFSET   2.323470   0.000000   0.000000
                                        CHANNELS 3 Zrotation Xrotation Yrotation
                                        End Site
                                        {
                                            OFFSET   2.273050   0.000000   0.000000
                                        }
                                    }
                                }
                            }
                            JOINT LeftFinger4
                            {
                                OFFSET   7.435090   0.000000  -3.252850
                                CHANNELS 3 Zrotation Xrotation Yrotation
                                JOINT LeftFinger41
                                {
                                    OFFSET   3.717550   0.000000   0.000000
                                    CHANNELS 3 Zrotation Xrotation Yrotation
                                    JOINT LeftFinger42
                                    {
                                        OFFSET   1.858770   0.000000   0.000000
                                        CHANNELS 3 Zrotation Xrotation Yrotation
                                        End Site
                                        {
                                            OFFSET   1.818440   0.000000   0.000000
                                        }
                                    }
                                }
                            }
                        }
                    }
                }
            }
            JOINT RightCollar
            {
                OFFSET  -3.911900  19.017000  -0.467063
                CHANNELS 3 Zrotation Xrotation Yrotation
                JOINT RightShoulder
                {
                    OFFSET -10.383700   0.000023   0.000000
                    CHANNELS 3 Zrotation Xrotation Yrotation
                    JOINT RightElbow
                    {
                        OFFSET -26.662100   0.001246   0.001011
                        CHANNELS 3 Zrotation Xrotation Yrotation
                        JOINT RightWrist
                        {
                            OFFSET -28.869000  -0.000026  -0.000078
                            CHANNELS 3 Zrotation Xrotation Yrotation
                            JOINT RightFinger0
                            {
                                OFFSET  -2.044660  -2.323490   3.252850
                                CHANNELS 3 Zrotation Xrotation Yrotation
                                JOINT RightFinger01
                                {
                                    OFFSET  -3.088130   0.000000   0.000000
                                    CHANNELS 3 Zrotation Xrotation Yrotation
                                    JOINT RightFinger02
                                    {
                                        OFFSET  -2.639460   0.000000   0.000000
                                        CHANNELS 3 Zrotation Xrotation Yrotation
                                        End Site
                                        {
                                            OFFSET  -2.582190   0.000000   0.000000
                                        }
                                    }
                                }
                            }
                            JOINT RightFinger1
                            {
                                OFFSET  -8.364480   0.000000   3.252850
                                CHANNELS 3 Zrotation Xrotation Yrotation
                                JOINT RightFinger11
                                {
                                    OFFSET  -4.646920   0.000000   0.000000
                                    CHANNELS 3 Zrotation Xrotation Yrotation
                                    JOINT RightFinger12
                                    {
                                        OFFSET  -2.323470   0.000000   0.000000
                                        CHANNELS 3 Zrotation Xrotation Yrotation
                                        End Site
                                        {
                                            OFFSET  -2.273050   0.000000   0.000000
                                        }
                                    }
                                }
                            }
                            JOINT RightFinger2
                            {
                                OFFSET  -8.364480   0.000000   1.078090
                                CHANNELS 3 Zrotation Xrotation Yrotation
                                JOINT RightFinger21
                                {
                                    OFFSET  -5.111620   0.000000   0.000000
                                    CHANNELS 3 Zrotation Xrotation Yrotation
                                    JOINT RightFinger22
                                    {
                                        OFFSET  -2.788160   0.000000   0.000000
                                        CHANNELS 3 Zrotation Xrotation Yrotation
                                        End Site
                                        {
                                            OFFSET  -2.727660   0.000000   0.000000
                                        }
                                    }
                                }
                            }
                            JOINT RightFinger3
                            {
                                OFFSET  -7.899780   0.000000  -1.078090
                                CHANNELS 3 Zrotation Xrotation Yrotation
                                JOINT RightFinger31
                                {
                                    OFFSET  -4.646930   0.000000   0.000000
                                    CHANNELS 3 Zrotation Xrotation Yrotation
                                    JOINT RightFinger32
                                    {
                                        OFFSET  -2.323470   0.000000   0.000000
                                        CHANNELS 3 Zrotation Xrotation Yrotation
                                        End Site
                                        {
                                            OFFSET  -2.273050   0.000000   0.000000
                                        }
                                    }
                                }
                            }
                            JOINT RightFinger4
                            {
                                OFFSET  -7.435090   0.000000  -3.252850
                                CHANNELS 3 Zrotation Xrotation Yrotation
                                JOINT RightFinger41
                                {
                                    OFFSET  -3.717550   0.000000   0.000000
                                    CHANNELS 3 Zrotation Xrotation Yrotation
                                    JOINT RightFinger42
                                    {
                                        OFFSET  -1.858760   0.000000   0.000000
                                        CHANNELS 3 Zrotation Xrotation Yrotation
                                        End Site
                                        {
                                            OFFSET  -1.818440   0.000000   0.000000
                                        }
                                    }
                                }
                            }
                        }
                    }
                }
            }
        }
    }
    JOINT LeftHip
    {
        OFFSET   9.783010   0.000000   0.000000
        CHANNELS 3 Zrotation Xrotation Yrotation
        JOINT LeftKnee
        {
            OFFSET   0.000073 -41.789100   0.001749
            CHANNELS 3 Zrotation Xrotation Yrotation
            JOINT LeftAnkle
            {
                OFFSET   0.000111 -41.133200  -0.000179
                CHANNELS 3 Zrotation Xrotation Yrotation
                JOINT LeftToe
                {
                    OFFSET   0.000000  -6.358960  14.674500
                    CHANNELS 3 Zrotation Xrotation Yrotation
                    End Site
                    {
                        OFFSET   0.000000   0.000000   3.913200
                    }
                }
            }
        }
    }
    JOINT RightHip
    {
        OFFSET  -9.783010   0.000000   0.000000
        CHANNELS 3 Zrotation Xrotation Yrotation
        JOINT RightKnee
        {
            OFFSET   0.000424 -41.789200   0.005205
            CHANNELS 3 Zrotation Xrotation Yrotation
            JOINT RightAnkle
            {
                OFFSET   0.000000 -41.133200  -0.000155
                CHANNELS 3 Zrotation Xrotation Yrotation
                JOINT RightToe
                {
                    OFFSET   0.000000  -6.358960  14.674500
                    CHANNELS 3 Zrotation Xrotation Yrotation
                    End Site
                    {
                        OFFSET   0.000000   0.000000   3.913200
                    }
                }
            }
        }
    }
}
MOTION
Frames: 5
Frame Time:   0.016667
 -1.164790  89.864600  -2.874350  -1.150570  -5.188160  -0.060699   0.178243   4.667320  -1.186530   0.456080   9.329920  -2.399680   0.836497  -1.630200   0.026965   1.387580  -3.304030   8.385700  -7.566040  -2.371240   6.283800 -67.424900  16.509700  -2.238270  -1.663430  -8.117420 -18.945900   8.842100 -13.539300   5.090390  53.190800  46.105600 -77.291700 -29.068100   0.008181   0.005086  -9.521180   0.003636   0.001889 -38.201400   2.705130  -3.432030 -31.322000  -0.001895  -0.001640 -21.922000   0.006209  -0.000766 -30.223900  -3.748130   6.380270 -45.658200   0.000423   0.006453 -30.403000   0.000199  -0.004623 -28.337700  -4.418460   8.129300 -38.193300  -0.005333   0.006316 -25.436800  -0.005010   0.002289 -37.453300  -7.261180   9.369180 -57.073700  -0.002790   0.000880 -38.011100  -0.001805   0.012029  10.858200   2.967890  12.106600  61.865700   6.077260   1.309750   1.272190  -9.292520  11.630600 -13.673600 -24.815600  -4.082410 -38.019200  38.149100  77.063400  32.789600   0.006434  -0.004096  11.397800  -0.009544   0.001257  37.213900   2.834510   3.729520  30.523200  -0.012195   0.001127  21.372900   0.012078   0.000212  28.528500  -2.876670  -5.265220  38.350900  -0.002542   0.006447  25.541700   0.004927   0.003211  29.005200  -2.916220  -5.242130  43.708000   0.002474   0.003771  29.109500   0.003215   0.002552  37.474500  -5.298900  -6.869100  56.689100   0.013227   0.001436  37.755000   0.001597   0.004216   2.120110   4.581210   2.348540   0.435028   2.393600  10.822300  -5.162890  -3.268960   3.018460   0.000000   0.000000  -0.000000   2.104040   3.479130  -8.216220  -1.801040   5.121760 -10.439500  -5.037690  -0.956483   0.900950   0.000000   0.000000   0.000000
 -1.164800  89.864600  -2.869120  -1.151270  -5.192390  -0.068007   0.181037   4.667070  -1.188100   0.461827   9.329340  -2.403060   0.839980  -1.639850   0.026940   1.392260  -3.323450   8.385950  -7.571310  -2.382320   6.283760 -67.440700  16.509600  -2.242120  -1.662420  -8.110710 -18.914200   8.828260 -13.540600   5.087960  53.183800  46.096300 -77.303900 -29.057700   0.008182   0.005101  -9.521180   0.003645   0.001900 -38.205500   2.713550  -3.440920 -31.325700  -0.001892  -0.001632 -21.921900   0.006211  -0.000754 -30.223900  -3.748120   6.380400 -45.659300   0.000449   0.006448 -30.403000   0.000221  -0.004615 -28.337800  -4.418010   8.128500 -38.196600  -0.005331   0.006316 -25.438900  -0.005011   0.002292 -37.459600  -7.264420   9.371170 -57.083700  -0.002801   0.000886 -38.017700  -0.001811   0.012031  10.861200   2.953240  12.113100  61.871000   6.083490   1.310390   1.263810  -9.271630  11.645300 -13.666200 -24.816500  -4.039930 -38.020900  38.162800  77.078300  32.796000   0.006434  -0.004104  11.397900  -0.009547   0.001247  37.213300   2.834600   3.729480  30.522700  -0.012199   0.001122  21.370300   0.012080   0.000206  28.528000  -2.876620  -5.265220  38.336300  -0.002544   0.006438  25.532000   0.004914   0.003207  28.998100  -2.916200  -5.242130  43.697500   0.002469   0.003769  29.102500   0.003204   0.002538  37.467200  -5.295890  -6.867060  56.677800   0.013218   0.001426  37.747400   0.001590   0.004230   2.119770   4.589580   2.348630   0.435124   2.394210  10.825700  -5.162610  -3.273940   3.018840  -0.000000   0.000000   0.000000   2.098680   3.485180  -8.204470  -1.790490   5.122220 -10.459500  -5.045300  -0.950490   0.911897   0.000000   0.000000   0.000000
 -1.164820  89.864500  -2.859870  -1.152450  -5.199870  -0.080346   0.185763   4.666820  -1.191090   0.471559   9.328750  -2.409450   0.846734  -1.655610   0.026886   1.401110  -3.355160   8.386340  -7.580000  -2.399530   6.283750 -67.466000  16.509500  -2.253140  -1.662520  -8.101290 -18.863000   8.813940 -13.541900   5.083450  53.183500  46.090100 -77.330400 -29.042400   0.008192   0.005120  -9.521170   0.003660   0.001922 -38.209300   2.722980  -3.453650 -31.329300  -0.001883  -0.001608 -21.921700   0.006218  -0.000725 -30.223800  -3.748110   6.380590 -45.660500   0.000514   0.006435 -30.402900   0.000276  -0.004594 -28.338700  -4.414840   8.122900 -38.199900  -0.005329   0.006318 -25.441100  -0.005013   0.002296 -37.465900  -7.267660   9.373160 -57.093700  -0.002827   0.000897 -38.024400  -0.001828   0.012041  10.866200   2.929060  12.122600  61.880600   6.100530   1.314760   1.248970  -9.235600  11.670000 -13.661700 -24.816100  -3.980240 -38.031600  38.185000  77.096800  32.803400   0.006432  -0.004112  11.398100  -0.009556   0.001228  37.209500   2.834680   3.729440  30.519300  -0.012205   0.001104  21.363500   0.012081   0.000190  28.526400  -2.876570  -5.265220  38.301600  -0.002553   0.006414  25.508900   0.004880   0.003195  28.984100  -2.916170  -5.242130  43.676600   0.002456   0.003761  29.088600   0.003175   0.002508  37.449300  -5.288630  -6.862200  56.649900   0.013200   0.001401  37.728800   0.001570   0.004261   2.119160   4.604590   2.348810   0.435076   2.394790  10.832600  -5.162130  -3.282240   3.019830   0.000000   0.000000  -0.000000   2.090760   3.498100  -8.187620  -1.774080   5.122530 -10.489000  -5.058300  -0.939618   0.928567   0.000000   0.000000   0.000000
 -1.163120  89.864500  -2.851420  -1.153440  -5.206090  -0.090305   0.189860   4.668240  -1.194440   0.480089   9.331500  -2.416550   0.854501  -1.667480   0.026811   1.410460  -3.379080   8.386640  -7.586950  -2.410810   6.284570 -67.484100  16.514700  -2.271920  -1.667410  -8.099230 -18.823700   8.813130 -13.532700   5.077370  53.209200  46.105600 -77.370400 -29.033400   0.008221   0.005122  -9.521300   0.003670   0.001946 -38.203700   2.724130  -3.460150 -31.324900  -0.001868  -0.001567 -21.922100   0.006226  -0.000683 -30.223900  -3.748090   6.380670 -45.656000   0.000616   0.006413 -30.403000   0.000361  -0.004559 -28.342300  -4.401720   8.098780 -38.196300  -0.005329   0.006326 -25.438700  -0.005013   0.002300 -37.460800  -7.252320   9.355640 -57.084100  -0.002869   0.000911 -38.018000  -0.001855   0.012063  10.868100   2.911330  12.128300  61.888300   6.129580   1.333710   1.235460  -9.203290  11.690300 -13.672400 -24.803400  -3.956680 -38.053300  38.204900  77.094300  32.804600   0.006418  -0.004075  11.398300  -0.009571   0.001209  37.185800   2.833820   3.729540  30.500000  -0.012212   0.001071  21.348800   0.012080   0.000171  28.523000  -2.876590  -5.270890  38.245200  -0.002567   0.006374  25.471300   0.004828   0.003173  28.965500  -2.916160  -5.248490  43.648100   0.002432   0.003740  29.069600   0.003133   0.002467  37.412500  -5.280830  -6.858800  56.594800   0.013177   0.001363  37.692100   0.001538   0.004304   2.118660   4.617860   2.349010   0.433328   2.393740  10.841000  -5.161590  -3.288810   3.021480  -0.000000   0.000000   0.000000   2.086450   3.513880  -8.181310  -1.764300   5.117380 -10.502800  -5.069430  -0.929062   0.938193   0.000000   0.000000   0.000000
 -1.160790  89.864500  -2.842300  -1.154500  -5.214170  -0.100954   0.193808   4.672550  -1.197890   0.488406   9.339990  -2.423830   0.862665  -1.678990   0.026727   1.420890  -3.402320   8.386890  -7.593280  -2.420300   6.285380 -67.500100  16.529200  -2.295820  -1.672180  -8.095770 -18.789700   8.821020 -13.519800   5.073300  53.245300  46.125900 -77.407400 -29.029300   0.008259   0.005124  -9.521540   0.003682   0.001977 -38.198300   2.724300  -3.462800 -31.320400  -0.001850  -0.001514 -21.924300   0.006236  -0.000628 -30.224900  -3.748070   6.380690 -45.651600   0.000741   0.006386 -30.404000   0.000466  -0.004514 -28.347700  -4.382700   8.063280 -38.192700  -0.005328   0.006337 -25.436400  -0.005013   0.002304 -37.459800  -7.224800   9.321100 -57.074400  -0.002921   0.000929 -38.011600  -0.001890   0.012091  10.868400   2.891550  12.130800  61.897600   6.163750   1.366100   1.220580  -9.171380  11.711000 -13.695000 -24.777300  -3.943890 -38.073800  38.217600  77.092900  32.804800   0.006399  -0.004024  11.398400  -0.009588   0.001188  37.165400   2.832970   3.730200  30.483600  -0.012220   0.001028  21.338500   0.012078   0.000136  28.519400  -2.876620  -5.276560  38.190600  -0.002586   0.006322  25.434900   0.004761   0.003145  28.949300  -2.916160  -5.254850  43.624700   0.002402   0.003714  29.054100   0.003077   0.002417  37.389000  -5.264940  -6.846530  56.556300   0.013147   0.001316  37.666500   0.001499   0.004358   2.118060   4.634280   2.349220   0.430216   2.391250  10.850000  -5.161020  -3.295460   3.023400  -0.000000   0.000000  -0.000000   2.083480   3.534200  -8.175470  -1.756700   5.106710 -10.515200  -5.080760  -0.917451   0.946744  -0.000000   0.000000   0.000000
